<svg xmlns="http://www.w3.org/2000/svg" xmlns:xlink="http://www.w3.org/1999/xlink" data-v-0dd9719b="" version="1.0" width="142" height="82" viewBox="0 0 142 82">
    <g data-v-0dd9719b="" fill="#00aeef" class="icon-text-wrapper icon-svg-group iconsvg" transform="">
    <g class="iconsvg-imagesvg" transform="translate(50.579050064086914,0)"><g>
    <rect fill="#00aeef" fill-opacity="0" stroke-width="2" x="0" y="0" width="41.30190796857464" height="45.99987522533846" class="image-rect"/>
    <svg x="0" y="0" width="41.30190796857464" height="45.99987522533846" filtersec="colorsb552734589" class="image-svg-svg primary" style="overflow: visible;">
        <svg xmlns="http://www.w3.org/2000/svg" viewBox="0 0 269.86700439453125 300.56500244140625">
            <path fill="none" pointer-events="none" d="M0 0h269.867v300.565H0z"/>
            <path d="M135.93 3.49L8.53 92.29l127.4 88.9z" class="st0" fill="#00aeef"/>
            <path d="M8.53 92.29v199.7l127.4-110.8z" class="st1" fill="#0087cd"/>
            <path d="M263.23 291.99V92.29l-127.3 88.9zM263.23 92.29l-127.3-88.8z" class="st0" fill="#00aeef"/>
            <path d="M263.23 92.29l-127.3-88.8v177.7z" class="st2" fill="#74d1f6"/>
        </svg>
    </svg>
    </g>
    </g> 
    <g transform="translate(0,52.999874114990234)">
    <g data-gra="path-name" fill-rule="" class="tp-name iconsvg-namesvg">
    <g transform="scale(1)">
    <g>
    <path d="M20.5-29.4L29.4-29.4 29.4-23.52 26.46-23.52 26.46-5.88 29.4-5.88 29.4 0 17.64 0 17.64-5.88 20.58-5.88 20.58-18.48 14.7-9.2 8.82-18.48 8.82-5.88 11.76-5.88 11.76 0 0 0 0-5.88 2.94-5.88 2.94-23.52 0-23.52 0-29.4 8.9-29.4 14.7-20.2 20.5-29.4ZM40.82-29.4L46.7-29.4Q48.51-29.4 50.13-28.71 51.74-28.01 52.94-26.82 54.14-25.62 54.83-24 55.52-22.39 55.52-20.58L55.52-20.58 55.52-8.82Q55.52-6.97 54.83-5.38 54.14-3.78 52.94-2.58 51.74-1.39 50.13-0.69 48.51 0 46.7 0L46.7 0 40.82 0Q38.98 0 37.38-0.69 35.78-1.39 34.59-2.58 33.39-3.78 32.7-5.38 32-6.97 32-8.82L32-8.82 32-20.58Q32-22.39 32.7-24 33.39-25.62 34.59-26.82 35.78-28.01 37.38-28.71 38.98-29.4 40.82-29.4L40.82-29.4ZM49.64-8.82L49.64-20.58Q49.64-21.8 48.78-22.66 47.92-23.52 46.7-23.52L46.7-23.52 40.82-23.52Q39.61-23.52 38.75-22.66 37.88-21.8 37.88-20.58L37.88-20.58 37.88-8.82Q37.88-7.6 38.75-6.74 39.61-5.88 40.82-5.88L40.82-5.88 46.7-5.88Q47.92-5.88 48.78-6.74 49.64-7.6 49.64-8.82L49.64-8.82ZM79.38-15.41L79.38-15.41Q80.6-14.2 81.27-12.58 81.94-10.96 81.94-9.11L81.94-9.11Q81.94-7.22 81.23-5.57 80.51-3.91 79.28-2.67 78.04-1.43 76.38-0.71 74.72 0 72.83 0L72.83 0 58.13 0 58.13-5.88 61.07-5.88 61.07-23.52 58.13-23.52 58.13-29.4 72.83-29.4Q74.59-29.4 76.15-28.73 77.7-28.06 78.86-26.9 80.01-25.75 80.68-24.19 81.35-22.64 81.35-20.87L81.35-20.87Q81.35-19.32 80.83-17.93 80.3-16.55 79.38-15.41ZM72.83-23.52L66.95-23.52 66.95-18.23 72.83-18.23Q73.92-18.23 74.7-19.01 75.47-19.78 75.47-20.87L75.47-20.87Q75.47-21.97 74.7-22.74 73.92-23.52 72.83-23.52L72.83-23.52ZM66.95-5.88L72.83-5.88Q74.17-5.88 75.12-6.83 76.06-7.77 76.06-9.11L76.06-9.11Q76.06-10.46 75.12-11.4 74.17-12.35 72.83-12.35L72.83-12.35 66.95-12.35 66.95-5.88ZM93.07-23.52L93.07-5.88 96.01-5.88 96.01 0 84.25 0 84.25-5.88 87.19-5.88 87.19-23.52 84.25-23.52 84.25-29.4 96.01-29.4 96.01-23.52 93.07-23.52ZM113.36-8.82L119.24-8.82 119.24 0 98.66 0 98.66-5.88 101.6-5.88 101.6-23.52 98.66-23.52 98.66-29.4 110.42-29.4 110.42-23.52 107.48-23.52 107.48-5.88 113.36-5.88 113.36-8.82ZM121.88-29.4L142.46-29.4 142.46-20.58 136.58-20.58 136.58-23.52 130.7-23.52 130.7-17.64 136.58-17.64 136.58-11.76 130.7-11.76 130.7-5.88 136.58-5.88 136.58-8.82 142.46-8.82 142.46 0 121.88 0 121.88-5.88 124.82-5.88 124.82-23.52 121.88-23.52 121.88-29.4Z" transform="translate(0, 29.399999618530273)"/></g>
    </g>
    </g>
    </g>
    </g>
    <defs v-gra="od"/>
</svg>